PathFileType	4	(X/Y/Z)	Apose_0-50.trc
DataRate	CameraRate	NumFrames	NumMarkers	Units	OrigDataRate	OrigDataStartFrame	OrigNumFrames
30	30	7	22	m	30	40	50
Frame#	Time	Hip			RHip			RKnee			RAnkle			RBigToe			RSmallToe			RHeel			LHip			LKnee			LAnkle			LBigToe			LSmallToe			LHeel			Neck			Head			Nose			RShoulder			RElbow			RWrist			LShoulder			LElbow			LWrist		
		X1	Y1	Z1	X2	Y2	Z2	X3	Y3	Z3	X4	Y4	Z4	X5	Y5	Z5	X6	Y6	Z6	X7	Y7	Z7	X8	Y8	Z8	X9	Y9	Z9	X10	Y10	Z10	X11	Y11	Z11	X12	Y12	Z12	X13	Y13	Z13	X14	Y14	Z14	X15	Y15	Z15	X16	Y16	Z16	X17	Y17	Z17	X18	Y18	Z18	X19	Y19	Z19	X20	Y20	Z20	X21	Y21	Z21	X22	Y22	Z22
41	1.3666666666666667	0.04861520658098736	0.9216007051464614	0.35841897105476817	0.041565157752719385	0.8958497456787922	0.4733068913277081	0.006572121330092915	0.5061615662243261	0.4986254646642297	-0.009245379261604554	0.11327966513555358	0.5141688067825059	0.2088221991836753	0.04064418506500849	0.560745072545531	0.1498048040005072	0.03156691442019596	0.6143492625093279	-0.05576437166825754	0.027643976156436868	0.5043072115424487	0.041245146303237626	0.8929050923951671	0.24655841915406215	0.028523379805399672	0.5094005788508287	0.2197560327560799	7.681740835217874e-05	0.11671903050111082	0.20891381656753027	0.210264516837399	0.03812621408910327	0.191162839143158	0.16212587524522218	0.03705657298577933	0.13130994210560779	-0.03610288352609967	0.04042896714311411	0.22106260518156595	0.07039951292725385	1.576042573540766	0.3483191943343021	0.18980576783456227	1.8048515936888367	0.3311406185213724	0.27839095157414884	1.6471617421919933	0.3639385203898707	0.035949611272680475	1.4934289566166314	0.536685443035454	0.08047734724805979	1.2354641237809165	0.7169353096466226	0.1420569165560372	1.0375167413939244	0.888948686288401	0.0191546416687873	1.4750772750647876	0.14882912925644587	0.027377303773097994	1.22625979510985	0.0050060503372197545	0.08350391572739109	1.0171073387746024	-0.14530756129772612
42	1.4	0.04960202757777539	0.9217189546339483	0.35900198598742317	0.042139216734866	0.8957441953289721	0.47399896665934577	0.00691288033451632	0.5064246476703731	0.4989804075335518	-0.008658771845927216	0.1116168402001291	0.514981472379048	0.2092931461690593	0.04016191261160179	0.5604848305342592	0.14989036960225235	0.030552583019786656	0.6145670287571112	-0.05496656403824417	0.027346259475417817	0.5039860161378923	0.04137196463848028	0.8927771691846101	0.2473177997894374	0.026152415291761544	0.5091132930560953	0.2203816278508958	-0.000327797281182591	0.11589466157092086	0.20843379447393973	0.21054559766607442	0.03809137453244448	0.19095493155858667	0.16234048207820306	0.03673927277080545	0.13141812216165305	-0.035530550626800425	0.040012393366572786	0.2217475203009297	0.07023261852009909	1.5786524974851441	0.34841436767840217	0.18346687215099833	1.8079105463028835	0.33075345858501526	0.2735354726106857	1.650709543404129	0.36333801477178646	0.036967893269603994	1.4937155952714585	0.5363382780908645	0.08189561851260244	1.2361360433345385	0.7158156598302805	0.14798663774120377	1.0348132577451912	0.886906969510485	0.019722084249653056	1.4750913916545465	0.14762550948519143	0.027538016229057802	1.226227170617575	0.0051059366271104	0.08376437068184704	1.0167368433728052	-0.1452605120415345
43	1.4333333333333331	0.05056024634070661	0.9217187889579317	0.35951586703613914	0.04290023794750252	0.8956627172778124	0.4746823903355651	0.007271771804348007	0.5066809934398797	0.49942924703997726	-0.008110568873570964	0.10890036179742582	0.5160743354188135	0.20968771018379284	0.039894953535268916	0.5604386498671957	0.14951988384197454	0.029438370085152567	0.6155949810208874	-0.05420539885880638	0.027419616212646748	0.5034706694265401	0.041769688233453915	0.8924616879583767	0.24799294330975558	0.023567822505769852	0.5085825766257276	0.22121959099552332	-0.0005028036539597679	0.11545926777839705	0.2080920667461957	0.21073809363119772	0.038042278723670435	0.1909093850230834	0.1628101526373059	0.036583787340121646	0.13161496495357858	-0.03503312744897857	0.039848384484173056	0.22231103569151242	0.06960253954830928	1.580703173840126	0.3484030031733721	0.17894900919008302	1.8103362344114906	0.3303943728184636	0.26979666059736124	1.6538317007591656	0.36202591459946565	0.03778714015825493	1.493753249912078	0.5361912250902185	0.08373556722180585	1.2366173439369752	0.7150636257486596	0.15476215174426	1.0317130440260822	0.8845105177428189	0.01977903985612143	1.4752096781102744	0.146626449582666	0.027633078111868072	1.2260403521238477	0.0050443342940170765	0.08428279568636139	1.0161839596872413	-0.1453184429156153
44	1.4666666666666666	0.051437714793400265	0.9215843467410576	0.35987855997929985	0.04373132640326954	0.895730712996099	0.47534631392280746	0.007732708458585249	0.5068693493308286	0.4998986871065991	-0.007750946777792963	0.10586732441865104	0.5171989909681195	0.2100903363487058	0.03998051365192229	0.5607552132844656	0.14854128079791817	0.028448355641743986	0.6175200681936155	-0.05356699903691094	0.02789637925934397	0.5029462644510853	0.04251152697139434	0.8921136433164168	0.24852523515479263	0.021841264254739985	0.5078873006889776	0.2219562468946224	-0.0003619012556459608	0.1154790537620021	0.20796960268311349	0.21074612415064675	0.037996608727713904	0.19104617686238964	0.16336333834552705	0.036645093014995	0.1319296814881699	-0.03456981633757911	0.03999048615263379	0.22268512736354604	0.06863812059786492	1.581726214806122	0.34822120392929706	0.1762661195195081	1.8123585626949679	0.33070685420060686	0.26694155917052237	1.656515161208278	0.36046184565608935	0.038365379703648436	1.49343843113793	0.5362878953504351	0.08581883363355486	1.2370654977762232	0.7147433409508548	0.16094614819271447	1.0291060043601072	0.882247295296491	0.019268944094118078	1.475359318457154	0.14606783906975424	0.027660854640015664	1.225760605229137	0.004752851406993659	0.08491114849551648	1.0155930401131246	-0.14551350247821773
45	1.5	0.052225575316698726	0.9213309395359437	0.3600232436565147	0.04455423332771412	0.8959023769659898	0.4758874067580583	0.00829191907675194	0.5069835774538316	0.5003179305691826	-0.007654778013700456	0.10332046587883603	0.5181286726974612	0.2105807936439605	0.04035045925901164	0.5613296386999936	0.1472058787541407	0.027766000683590114	0.6198981195807063	-0.053126890263108975	0.028642269995802088	0.5025516562298057	0.04351019650946153	0.891796561815426	0.24885222068419688	0.021661210605823704	0.5069970508067421	0.22229160963161868	-0.00011248732193018658	0.11563287331308995	0.20791521347127428	0.21051929001254202	0.03792867741007988	0.19126316325795745	0.1637814972521699	0.036829403538123126	0.1323155535473281	-0.03405787246684416	0.04041575243761084	0.22290304318086407	0.06754788612779797	1.5817749545345563	0.3478566355280536	0.17491935958111232	1.8140902360996378	0.33166928314177463	0.2647559064160462	1.6588046252920283	0.3589129112385414	0.03873557518778426	1.4928112423987183	0.5365771079972016	0.08772500012712629	1.2374889851516055	0.7147952239974168	0.1652632752449388	1.0276801420411066	0.8805509568706845	0.01826503076186416	1.4754624911181689	0.14602119691530205	0.02762006256556021	1.2254576732966502	0.00417304030338763	0.08555173413160323	1.015131460485673	-0.1458331094294739
46	1.5333333333333334	0.052937813796951776	0.9209864238239122	0.35992923290962925	0.04535509912916701	0.8959128035604982	0.47612437982636113	0.00883340994666777	0.5070099233531707	0.5006073672905488	-0.007687304895571208	0.10170997688817016	0.5187866154732704	0.2111262972583425	0.04075963905847417	0.5617024376693519	0.146305042292393	0.027512611747955724	0.6216369969293513	-0.052914602030578184	0.029407852537407325	0.5022750725799175	0.0445816329324223	0.8914123861277793	0.2489020693528845	0.02296814746123496	0.505718492009103	0.22212865588927086	-7.585829184486586e-05	0.11555233373038404	0.207683482632815	0.21005899720569632	0.037792190411404	0.19133482541853794	0.16392306369834828	0.0369004119725336	0.1326064782838075	-0.033437519188443204	0.04103558489275261	0.223062772238965	0.06641835535945932	1.5810432415438134	0.34732444647381056	0.17377146504416546	1.8154269442374424	0.3324823660987106	0.2631323136578026	1.660702207817805	0.35749246460422274	0.03895866277270381	1.492019944812033	0.5369956121715281	0.08923309312124987	1.2375787454757803	0.7151494334233299	0.16693179375131517	1.027694421200982	0.8796802442988568	0.0169778276768011	1.4754796307464209	0.14641200814547095	0.027611062983268122	1.2252301565126895	0.0033955358091549578	0.08621064221005327	1.014916831228861	-0.1462404135975395
47	1.5666666666666669	0.053532551350308266	0.920580087421018	0.35963273527071027	0.046130662393684095	0.8953945078922031	0.47584119216018433	0.009182132511757238	0.5069271676997709	0.5006274100624803	-0.0075581223018097565	0.10108473940388295	0.5192043508635423	0.21161823572563854	0.04095126037086163	0.5613325177946891	0.14671021969523146	0.027751286510537786	0.6216001712549762	-0.052856957175356094	0.02997300555217034	0.5019768413559602	0.0455305113958814	0.8907616570866963	0.24860198555748364	0.025408245995376274	0.5036809830555097	0.22152997479072545	-0.00042078990774317156	0.11515727050047873	0.2071506009005505	0.20943508765209973	0.03759586655976309	0.19101683871437086	0.16375364760636638	0.03660402784340989	0.1326021655193705	-0.03271817373210352	0.0416972756408141	0.22328869196594692	0.06515055166819517	1.5797327718905563	0.34670137733054623	0.171648577440249	1.8161551596497951	0.3322360446200955	0.2620045253200885	1.662139150332949	0.3562370209080094	0.03909229066983737	1.4912006038933596	0.5375621396641054	0.09033965135946175	1.2367698611589846	0.7158182317293341	0.16559523048603841	1.029154327877057	0.8797079094962492	0.01565615516744024	1.4754338805398937	0.1471545323895796	0.02783647659953934	1.2252201440284254	0.0026926323826685634	0.0869475343458507	1.014979374668233	-0.1466743153669581
